<svg xmlns="http://www.w3.org/2000/svg" width="32" height="32" viewBox="0 0 32 32"><path d="m 1,9 30,0 0,15 -3.705078,0 -4.398438,0 L 1,24 z m 2.5,1 c -0.2617922,2.6e-5 -0.4999738,0.238208 -0.5,0.5 l 0,2 c 4.286e-4,0.209181 0.1467356,0.410043 0.3457031,0.474609 0.016031,0.0054 0.032335,0.0099 0.048828,0.01367 0.032699,0.0072 0.066126,0.01116 0.099609,0.01172 0.00195,1.1e-5 0.00391,1.1e-5 0.00586,0 l 7.964844,0 0.03516,0 c 0.01691,8.6e-4 0.03387,8.6e-4 0.05078,0 0.01642,-0.0024 0.03273,-0.0057 0.04883,-0.0098 C 11.82348,12.944704 12.000098,12.728454 12,12.5 l 0,-2 -0.0078,0.0098 C 11.99732,10.247321 11.762464,10.004077 11.5,10 z m 0.5,1 7,0 0,1 -7,0 z m -1,3 0,1 20,0 3.5,0 2.5,0 0,-1 -2.5,0 -3.5,0 z m 0,2 0,1 20,0 3.5,0 2.5,0 0,-1 -2.5,0 -3.5,0 z m 17.5,2 c -0.261792,2.6e-5 -0.499974,0.238208 -0.5,0.5 l 0,2 c 4.29e-4,0.209181 0.146736,0.410043 0.345703,0.474609 0.01603,0.0054 0.03233,0.0099 0.04883,0.01367 0.0327,0.0072 0.06613,0.01116 0.09961,0.01172 0.002,1.1e-5 0.0039,1.1e-5 0.0059,0 l 7.964844,0 0.03516,0 c 0.01691,8.6e-4 0.03387,8.6e-4 0.05078,0 0.01642,-0.0024 0.03273,-0.0057 0.04883,-0.0098 C 28.82348,20.944704 29.000098,20.728454 29,20.5 l 0,-2 -0.0078,0.0098 C 28.99732,18.247321 28.762464,18.004077 28.5,18 z M 3,19 l 0,1 7,0 0,-1 z m 18,0 7,0 0,1 -7,0 z m 3,3 0,1 5,0 0,-1 z" color="#000" font-family="sans-serif" font-weight="400" overflow="visible" style="text-indent:0;text-align:start;line-height:normal;text-transform:none;block-progression:tb"/></svg>