<svg xmlns="http://www.w3.org/2000/svg" xmlns:xlink="http://www.w3.org/1999/xlink" width="32" height="32" viewBox="0 0 32 32"><defs><linearGradient id="a"><stop offset="0" stop-color="#000092"/><stop offset="1" stop-color="#ff00f3"/></linearGradient><linearGradient id="b" x1=".999" x2="29" y1="15.502" y2="15.502" gradientUnits="userSpaceOnUse" xlink:href="#a"/></defs><path fill="url(#b)" fill-rule="evenodd" d="M 20.486328 3.0058594 C 20.204633 3.0146393 19.924247 3.0354469 19.644531 3.0683594 C 17.406807 3.3315594 15.258585 4.3630813 13.626953 6.1132812 C 12.285017 7.5526608 11.456978 9.3079133 11.144531 11.136719 C 10.98016 11.107314 10.816148 11.076137 10.650391 11.056641 C 8.7476349 10.832741 6.7688507 11.263372 5.0742188 12.388672 C 1.7338671 14.606708 0.46167151 18.892595 2.0214844 22.568359 L 1.0097656 27.398438 A 0.50005 0.50005 0 0 0 1.6386719 27.982422 L 5.9296875 26.744141 C 9.4824451 28.537876 13.832775 27.568141 16.273438 24.400391 C 16.842458 23.661878 17.261435 22.851205 17.548828 22.007812 C 20.006241 22.86965 22.775695 22.74868 25.226562 21.5 L 30.361328 22.980469 A 0.50005006 0.50005006 0 0 0 30.990234 22.398438 L 29.779297 16.638672 C 31.634524 12.307674 30.141645 7.2503302 26.203125 4.6347656 C 24.458985 3.4764406 22.458191 2.9444002 20.486328 3.0058594 z M 20.517578 4 C 22.287074 3.9451167 24.082044 4.4252406 25.650391 5.4667969 C 29.235198 7.8474969 30.567975 12.463372 28.804688 16.388672 A 0.50005171 0.50005171 0 0 0 28.775391 16.714844 A 0.50005006 0.50005006 0 0 0 28.779297 16.738281 L 29.839844 21.791016 L 25.390625 20.505859 A 0.50006212 0.50006212 0 0 0 25.332031 20.492188 A 0.50005006 0.50005006 0 0 0 25.166016 20.46875 L 25.166016 20.470703 A 0.50005006 0.50005006 0 0 0 24.941406 20.53125 C 22.678187 21.745249 20.0966 21.861359 17.820312 21.044922 C 18.252222 18.995693 17.89684 16.827049 16.785156 15 L 26.492188 15 A 0.50005 0.50005 0 1 0 26.492188 14 L 16.068359 14 C 15.969511 13.881414 15.873964 13.76059 15.767578 13.646484 C 14.743078 12.547716 13.476908 11.78499 12.119141 11.369141 C 12.391043 9.7039437 13.137096 8.106022 14.359375 6.7949219 C 16.009945 5.0244531 18.242512 4.0705643 20.517578 4 z M 15.457031 8 A 0.50004997 0.50004997 0 0 0 15.507812 9 L 26.488281 9 A 0.50004997 0.50004997 0 1 0 26.488281 8 L 15.507812 8 A 0.50004997 0.50004997 0 0 0 15.457031 8 z M 15.457031 11 A 0.50004997 0.50004997 0 0 0 15.507812 12 L 26.488281 12 A 0.50004997 0.50004997 0 1 0 26.488281 11 L 15.507812 11 A 0.50004997 0.50004997 0 0 0 15.457031 11 z M 9.9042969 12 C 11.799606 12.058816 13.659629 12.8528 15.035156 14.328125 C 17.480539 16.950925 17.669036 20.948562 15.480469 23.789062 C 13.291912 26.629563 9.3771297 27.466384 6.2167969 25.771484 A 0.50049558 0.50053716 60.00325 0 0 5.8203125 25.736328 A 0.50011012 0.50011012 0 0 0 5.7792969 25.746094 L 2.1601562 26.791016 L 3.0234375 22.664062 A 0.50005 0.50005 0 0 0 3.0234375 22.658203 A 0.50040026 0.50044184 60.00325 0 0 3 22.320312 C 1.5305898 19.049413 2.6395643 15.204403 5.6269531 13.220703 C 6.9339453 12.352834 8.4301677 11.954254 9.9042969 12 z M 5.4570312 16 A 0.50004997 0.50004997 0 0 0 5.5078125 17 L 14.492188 17 A 0.50004997 0.50004997 0 1 0 14.492188 16 L 5.5078125 16 A 0.50004997 0.50004997 0 0 0 5.4570312 16 z M 19.240234 17 A 0.50004994 0.50004994 0 0 0 19.291016 18 L 21.695312 18 A 0.50004994 0.50004994 0 1 0 21.695312 17 L 19.291016 17 A 0.50004994 0.50004994 0 0 0 19.240234 17 z M 5.4570312 19 A 0.50004997 0.50004997 0 0 0 5.5078125 20 L 14.492188 20 A 0.50004997 0.50004997 0 1 0 14.492188 19 L 5.5078125 19 A 0.50004997 0.50004997 0 0 0 5.4570312 19 z M 5.4492188 22 A 0.50004994 0.50004994 0 0 0 5.5 23 L 9.5 23 A 0.50004994 0.50004994 0 1 0 9.5 22 L 5.5 22 A 0.50004994 0.50004994 0 0 0 5.4492188 22 z " color="#000" font-family="sans-serif" font-weight="400" overflow="visible" style="line-height:normal;text-indent:0;text-align:start;text-decoration-line:none;text-decoration-style:solid;text-decoration-color:#000;text-transform:none;block-progression:tb;isolation:auto;mix-blend-mode:normal"/></svg>