<svg xmlns="http://www.w3.org/2000/svg" enable-background="new 0 0 24 24" viewBox="0 0 24 24"><path fill="#6563ff" d="M12,2C6.5,2,2,6.5,2,12s4.5,10,10,10s10-4.5,10-10C22,6.5,17.5,2,12,2z M4.3,14C4.1,13.3,4,12.7,4,12c0-0.7,0.1-1.3,0.3-2h1.9c-0.2,1.3-0.2,2.7,0,4H4.3z M5.1,16h1.4c0.2,0.9,0.5,1.8,1,2.6C6.5,17.9,5.7,17,5.1,16z M6.5,8H5.1c0.6-1,1.4-1.9,2.4-2.6C7,6.2,6.7,7.1,6.5,8z M11,19.7c-1.2-0.9-2.1-2.2-2.4-3.7H11V19.7z M11,14H8.1C8,13.3,8,12.7,8,12c0-0.7,0-1.3,0.1-2H11V14z M11,8H8.6C8.9,6.5,9.8,5.2,11,4.3V8z M18.9,8h-1.4c-0.2-0.9-0.5-1.8-1-2.6C17.5,6.1,18.3,7,18.9,8z M13,4.3c1.2,0.9,2.1,2.2,2.4,3.7H13V4.3z M13,19.7V16h2.4C15.1,17.5,14.2,18.8,13,19.7z M15.9,14H13v-4h2.9C16,11.3,16,12.7,15.9,14z M16.6,18.6L16.6,18.6c0.4-0.8,0.7-1.7,1-2.6h1.4C18.3,17,17.5,17.9,16.6,18.6z M17.9,14c0.2-1.3,0.2-2.7,0-4h1.9c0.4,1.3,0.4,2.7,0,4H17.9z"/></svg>