<svg xmlns="http://www.w3.org/2000/svg" data-name="Layer 23" viewBox="0 0 32 32"><path d="M29.95,28.68l-3-9A1.013,1.013,0,0,0,26,19H22.88C24.6,16.69,26,14.15,26,12A10,10,0,1,0,6,12c0,2.15,1.4,4.69,3.12,7H6a1.013,1.013,0,0,0-.95.68l-3,9a1,1,0,0,0,.14.9A0.983,0.983,0,0,0,3,30H29a0.983,0.983,0,0,0,.81-0.42A1,1,0,0,0,29.95,28.68ZM11,10a1.014,1.014,0,0,1,.4-0.8l4-3a0.99,0.99,0,0,1,1.2,0l4,3a1.014,1.014,0,0,1,.4.8v5a1,1,0,0,1-1,1H18V13a1,1,0,0,0-1-1H15a1,1,0,0,0-1,1v3H12a1,1,0,0,1-1-1V10ZM4.39,28l2.33-7h3.99a55.8,55.8,0,0,0,4.62,4.75,1.023,1.023,0,0,0,1.34,0A55.8,55.8,0,0,0,21.29,21h3.99l2.33,7H4.39Z"/></svg>