<svg xmlns="http://www.w3.org/2000/svg" enable-background="new 0 0 24 24" viewBox="0 0 24 24"><path fill="#6563ff" d="M16,1.9H8c-1.7,0-3,1.3-3,3v14c0,1.7,1.3,3,3,3h8c1.7,0,3-1.3,3-3v-14C19,3.3,17.7,1.9,16,1.9z M12,4.9c0.6,0,1,0.4,1,1s-0.4,1-1,1s-1-0.4-1-1S11.4,4.9,12,4.9z M12,8.5C12,8.5,12,8.5,12,8.5c1.3,0,2.4,1.1,2.4,2.4c0,1.3-1.1,2.4-2.4,2.4s-2.4-1.1-2.4-2.4C9.6,9.6,10.7,8.5,12,8.5z M12,14.2c1.4,0,2.7,0.6,3.5,1.7h-7C9.3,14.9,10.6,14.2,12,14.2z M17,18.9c0,0.6-0.4,1-1,1H8c-0.6,0-1-0.4-1-1v-1h10V18.9z"/></svg>