<svg xmlns="http://www.w3.org/2000/svg" enable-background="new 0 0 32 32" viewBox="0 0 32 32"><path fill="none" d="M16.8 8.4c-.4-.5-1.2-.5-1.6 0l-6 8c-.2.3-.3.7-.1 1C9.3 17.8 9.6 18 10 18h12c0 0 0 0 0 0 .6 0 1-.4 1-1 0-.3-.1-.6-.3-.7L16.8 8.4zM22 20H10c-.6 0-1 .4-1 1s.4 1 1 1h12c.6 0 1-.4 1-1S22.6 20 22 20z"/><path d="M16,2C8.3,2,2,8.3,2,16s6.3,14,14,14s14-6.3,14-14S23.7,2,16,2z M22,22H10c-0.6,0-1-0.4-1-1s0.4-1,1-1h12c0.6,0,1,0.4,1,1
	S22.6,22,22,22z M22,18C22,18,22,18,22,18H10c-0.4,0-0.7-0.2-0.9-0.6c-0.2-0.3-0.1-0.7,0.1-1l6-8c0.4-0.5,1.2-0.5,1.6,0l5.9,7.9
	c0.2,0.2,0.3,0.4,0.3,0.7C23,17.6,22.6,18,22,18z"/></svg>