<svg xmlns="http://www.w3.org/2000/svg" viewBox="0 0 16 16"><path d="M8,0c-4.41113,0 -8,3.58887 -8,8c0,4.41113 3.58887,8 8,8c4.41113,0 8,-3.58887 8,-8c0,-4.41113 -3.58887,-8 -8,-8Zm4.3576,12.1122c-2.73126,-1.36841 -6.03387,-1.42651 -8.83215,-0.128662c-0.945435,-1.06079 -1.52545,-2.45398 -1.52545,-3.98352c0,-3.30859 2.69141,-6 6,-6c3.30859,0 6,2.69141 6,6c0,1.59192 -0.627319,3.03705 -1.6424,4.11218Z"/><path d="M5.41421,1.17157c1.17157,1.17157 1.17157,3.07107 0,4.24264c-1.17157,1.17157 -3.07107,1.17157 -4.24264,0c-1.17157,-1.17157 -1.17157,-3.07107 -8.88178e-16,-4.24264c1.17157,-1.17157 3.07107,-1.17157 4.24264,-8.88178e-16" transform="translate(4.707 3.707)"/></svg>